<?xml version="1.0" encoding="utf-8"?>
<!-- Generator: Adobe Illustrator 24.0.2, SVG Export Plug-In . SVG Version: 6.00 Build 0)  -->
<svg version="1.1" id="Layer_1" xmlns="http://www.w3.org/2000/svg" xmlns:xlink="http://www.w3.org/1999/xlink" x="0px" y="0px"
	 viewBox="0 0 450 90" style="enable-background:new 0 0 450 90;" xml:space="preserve">
<style type="text/css">
	.st0{fill:#F3931F;}
	.st1{fill:#FFFFFF;}
	.st2{font-family:'Brother-1816-Regular';}
	.st3{font-size:41.5729px;}
	.st4{fill:#F49318;}
	.st5{font-family:'Brother1816-Bold';}
	.st6{font-size:38.6034px;}
</style>
<g>
	<g>
		<path class="st0" d="M212,21.8c3.6,0,7.4,0,11,0c13.4,0,24.6,9.5,26.7,22.9c0.3,1.5,0.3,3,0.3,4.8c0,3.9,0,7.7,0,11.6
			c0,0.6-0.3,0.9-0.9,0.9c-1.8,0-3.6,0-5.3-0.6c-2.7-1.2-4.8-4.2-4.8-7.1c0-2.4,0.3-4.8-0.3-7.1c-0.9-5.3-3.9-9.5-8.6-12.2
			c-2.4-1.2-5-1.8-7.7-1.8c-4.5,0-8.9,0-13.4,0c-2.4,0-4.5-0.3-6.5-1.8c-2.1-2.1-3.3-4.2-3.3-7.1c0-0.6,0-1.2,0-1.5
			c0-0.6,0.3-0.6,0.6-0.6C204,21.8,207.8,21.8,212,21.8z"/>
		<path class="st0" d="M255.4,80c-3.6,0-7.1,0-10.7,0c-6.5,0-12.2-2.1-16.9-6.2c-5.3-4.5-8.3-10.1-9.5-16.9
			c-0.3-1.5-0.3-2.7-0.3-4.2c0-3.9,0-7.7,0-11.6c0-0.6,0-0.9,0.6-0.6c1.2,0,2.7,0,3.9,0.3c3.6,0.6,6.2,3.9,6.2,7.4
			c0,2.4-0.3,4.8,0.3,7.1c0.9,4.8,3.3,8.6,7.4,11.3c2.7,1.8,5.9,2.7,9.2,2.7c4.5,0,8.9,0,13.1,0c2.1,0,4.5,0.3,6.2,1.8
			c2.7,1.5,3.9,4.2,3.9,7.1c0,0.6,0.3,1.5,0,2.1s-1.2,0-2.1,0C263.1,80,259.2,80,255.4,80z"/>
	</g>
</g>
<text transform="matrix(1 0 0 1 11.9329 67.5903)" class="st1 st2 st3">Decentral</text>
<text transform="matrix(1 0 0 1 268.7634 67.5903)" class="st4 st5 st6">Exchange</text>
</svg>
