<?xml version="1.0" encoding="utf-8"?>
<!-- Generator: Adobe Illustrator 24.2.3, SVG Export Plug-In . SVG Version: 6.00 Build 0)  -->
<svg version="1.1" id="Layer_1" xmlns="http://www.w3.org/2000/svg" xmlns:xlink="http://www.w3.org/1999/xlink" x="0px" y="0px"
	 viewBox="0 0 30 30" style="enable-background:new 0 0 30 30;" xml:space="preserve">
<style type="text/css">
	.st0{fill:#0582B8;}
	.st1{fill:#F9F9F9;}
</style>
<desc>Created with Sketch.</desc>
<g>
	<g>
		<path class="st0" d="M28.5,15.1c0.1,7.1-5.8,13-13,13c-7.2,0-13.2-5.9-13-13.4C2.7,7.9,8.3,1.9,15.9,2.1
			C22.9,2.2,28.6,8.1,28.5,15.1z"/>
		<path class="st1" d="M16.6,11.4c0,1,0,2,0,3.1c0,0.5,0.2,0.8,0.6,1c1.8,1,3.6,2.1,5.4,3.1c0.5,0.3,0.5,0.4,0.2,0.9
			c-0.2,0.3-0.3,0.6-0.5,0.8c-0.2,0.4-0.4,0.4-0.8,0.2c-1.8-1-3.5-2-5.3-3.1c-0.5-0.3-0.9-0.3-1.4,0c-1.7,1-3.5,2-5.2,3
			c-0.5,0.3-0.6,0.3-0.9-0.2c-0.2-0.3-0.3-0.5-0.5-0.8C8,18.9,8,18.8,8.5,18.5c1.8-1,3.5-2.1,5.3-3c0.5-0.3,0.7-0.6,0.7-1.2
			c0-2,0-4,0-6.1c0-0.6,0-0.6,0.7-0.6c0.3,0,0.6,0,0.9,0c0.6,0,0.6,0.1,0.7,0.7C16.6,9.3,16.6,10.4,16.6,11.4z"/>
		<path class="st1" d="M10.5,13.7c-0.8,0-1.4-0.6-1.4-1.4c0-0.8,0.6-1.4,1.4-1.4c0.8,0,1.4,0.6,1.4,1.4
			C11.8,13.1,11.2,13.7,10.5,13.7z"/>
		<path class="st1" d="M20.6,13.7c-0.8,0-1.4-0.6-1.4-1.4c0-0.7,0.6-1.4,1.4-1.4c0.8,0,1.4,0.6,1.4,1.4C22,13.1,21.4,13.7,20.6,13.7
			z"/>
		<path class="st1" d="M16.9,21.6c0,0.8-0.6,1.4-1.4,1.4c-0.8,0-1.4-0.6-1.4-1.4c0-0.8,0.6-1.4,1.3-1.4
			C16.3,20.2,16.9,20.8,16.9,21.6z"/>
	</g>
</g>
</svg>
