<?xml version="1.0" encoding="utf-8"?>
<!-- Generator: Adobe Illustrator 24.0.2, SVG Export Plug-In . SVG Version: 6.00 Build 0)  -->
<svg version="1.1" id="Layer_1" xmlns="http://www.w3.org/2000/svg" xmlns:xlink="http://www.w3.org/1999/xlink" x="0px" y="0px"
	 viewBox="0 0 60 60" style="enable-background:new 0 0 60 60;" xml:space="preserve">
<style type="text/css">
	.st0{fill:#392CB7;}
	.st1{fill:#FEFEFE;}
	.st2{fill:#D1CEEE;}
	.st3{fill:#D5D2EF;}
</style>
<title>logo-beta</title>
<desc>Created with Sketch.</desc>
<g id="Layer_2_1_">
	<g id="Layer_1-2">
		<g id="Layer_2-2">
			<g id="Layer_1-2-2">
				<path class="st0" d="M30,58.4C14.3,58.4,1.6,45.7,1.6,30S14.3,1.7,30,1.7c15.7,0,28.4,12.7,28.4,28.4S45.7,58.4,30,58.4L30,58.4
					z"/>
				<path class="st1" d="M20.7,17.3c1.7,0,3.4,0,5,0c5.9,0.2,10.8,4.5,11.7,10.3c0.2,2.4,0.3,4.8,0.2,7.2c0,0.2,0,0.3-0.2,0.3
					c-1.9,0.4-3.7-0.6-4.5-2.4c-0.2-0.5-0.2-0.9-0.2-1.4c0.1-1.5,0-3-0.5-4.4c-1-2.8-3.6-4.7-6.6-4.8c-2.2,0-4.2,0-6.3,0
					c-0.9,0-1.8-0.2-2.6-0.5c-1.5-0.8-2.4-2.4-2.2-4.1c0-0.4,0.3-0.3,0.5-0.3L20.7,17.3L20.7,17.3z"/>
				<path class="st1" d="M39.8,43.6c-1.7,0-3.5,0-5.2,0c-5.8-0.3-10.5-4.6-11.5-10.3c-0.2-2.4-0.3-4.9-0.2-7.3c0-0.2,0-0.3,0.3-0.3
					c1.6-0.3,3.3,0.4,4.2,1.8c0.3,0.6,0.5,1.2,0.5,1.8c-0.1,1.5,0,2.9,0.4,4.4c1.1,3.1,4,5.1,7.3,5c2.2,0,4.4,0,6.6,0
					c2.2,0.1,4,1.9,3.9,4.2c0,0.1,0,0.1,0,0.2c0,0.4-0.1,0.5-0.5,0.5L39.8,43.6L39.8,43.6z"/>
				<path class="st1" d="M18.8,30.1c0.4,0,0.2,0.3,0.2,0.5c0,2.4,0,4.7,0,7.1c0,0.5,0.1,0.7,0.6,0.6c0.9-0.2,1.8,0.4,2.2,1.2
					c0.8,1.2,1.7,2.3,2.8,3.2c-0.1,0.2-0.3,0.1-0.4,0.1H15c-0.5,0-0.6-0.2-0.6-0.6c0-3.9,0-7.8,0-11.6c0-0.4,0.1-0.6,0.6-0.6
					c1.2,0,2.4,0,3.7,0c0,0.5,0,0.9,0,1.4C18.7,31,18.7,30.6,18.8,30.1z"/>
				<path class="st1" d="M34.6,17.3h10.9c0.3,0,0.4,0,0.4,0.4c0.2,2.2-1.5,4.2-3.7,4.4c0,0-0.1,0-0.1,0h-0.5c-1.4,0.1-2.6,0-3.4-1.4
					c-0.8-1.2-1.9-2.2-3.1-2.9C34.9,17.6,34.8,17.5,34.6,17.3z"/>
				<path class="st2" d="M18.8,30.1v1.4h-0.1v-1.4L18.8,30.1z"/>
				<path class="st3" d="M18.9,32.4c-0.1-0.1-0.1-0.3,0-0.4C19,32.2,18.9,32.3,18.9,32.4z"/>
			</g>
		</g>
	</g>
</g>
</svg>
