<?xml version="1.0" encoding="utf-8"?>
<!-- Generator: Adobe Illustrator 25.4.1, SVG Export Plug-In . SVG Version: 6.00 Build 0)  -->
<svg version="1.1" id="Layer_1" xmlns="http://www.w3.org/2000/svg" xmlns:xlink="http://www.w3.org/1999/xlink" x="0px" y="0px"
	 viewBox="0 0 90 90" style="enable-background:new 0 0 90 90;" xml:space="preserve">
<style type="text/css">
	.st0{fill:#FF8D00;}
	.st1{clip-path:url(#SVGID_00000007415128539677381180000010155354254950100884_);}
	.st2{opacity:0.9;fill:#FF8D00;enable-background:new    ;}
	.st3{clip-path:url(#SVGID_00000047752915389631110370000015124421213747763883_);}
</style>
<desc>Created with Sketch.</desc>
<g id="surface1">
	<path class="st0" d="M45.2,27.5h-0.7c-7.9,0-14.3,6.4-14.3,14.3v8.1h29.3v-8.1C59.5,33.9,53.1,27.5,45.2,27.5"/>
	<g>
		<defs>
			<rect id="SVGID_1_" x="38.3" y="60.4" width="12.9" height="19.9"/>
		</defs>
		<clipPath id="SVGID_00000103227812082505581070000001269502761308022439_">
			<use xlink:href="#SVGID_1_"  style="overflow:visible;"/>
		</clipPath>
		<g style="clip-path:url(#SVGID_00000103227812082505581070000001269502761308022439_);">
			<path class="st2" d="M40.9,80.3h7.9c0.2,0,0.3-0.1,0.3-0.3l-1.7-7.4c2.2-1,3.8-3.2,3.8-5.8c0-3.5-2.8-6.3-6.3-6.3
				c-3.5,0-6.3,2.8-6.3,6.3c0,2.6,1.6,4.8,3.8,5.8L40.6,80C40.6,80.1,40.7,80.3,40.9,80.3"/>
		</g>
	</g>
	<g>
		<defs>
			<rect id="SVGID_00000109733017102560161950000006605162598909154180_" x="5.5" y="8.3" width="78.7" height="70.3"/>
		</defs>
		<clipPath id="SVGID_00000062182300818307000270000009327958340616556985_">
			<use xlink:href="#SVGID_00000109733017102560161950000006605162598909154180_"  style="overflow:visible;"/>
		</clipPath>
		<g style="clip-path:url(#SVGID_00000062182300818307000270000009327958340616556985_);">
			<path class="st0" d="M44.9,8.3C23.1,8.3,5.5,25.9,5.5,47.7c0,12.5,5.8,23.6,14.8,30.8V51.4c0-0.8,0.7-1.5,1.5-1.5h2.7v-8.1
				c0-11,9-20,20-20h0.7c11,0,20,9,20,20v8.1h2.7c0.8,0,1.5,0.7,1.5,1.5v27.1c9-7.2,14.8-18.3,14.8-30.8
				C84.2,25.9,66.6,8.3,44.9,8.3"/>
		</g>
	</g>
</g>
</svg>
