<?xml version="1.0" encoding="utf-8"?>
<!-- Generator: Adobe Illustrator 25.4.1, SVG Export Plug-In . SVG Version: 6.00 Build 0)  -->
<svg version="1.1" id="Layer_1" xmlns="http://www.w3.org/2000/svg" xmlns:xlink="http://www.w3.org/1999/xlink" x="0px" y="0px"
	 viewBox="0 0 90 90" style="enable-background:new 0 0 90 90;" xml:space="preserve">
<style type="text/css">
	.st0{fill:#3D26BE;}
	.st1{clip-path:url(#SVGID_00000112604434971441267170000004269272871100914840_);}
	.st2{opacity:0.9;fill:#3D26BE;enable-background:new    ;}
	.st3{clip-path:url(#SVGID_00000050650962408178039740000006435167497071051162_);}
</style>
<desc>Created with Sketch.</desc>
<g id="surface1">
	<path class="st0" d="M45.1,26.4h-0.7c-7.9,0-14.3,6.4-14.3,14.3v8.1h29.3v-8.1C59.4,32.8,53,26.4,45.1,26.4"/>
	<g>
		<defs>
			<rect id="SVGID_1_" x="38.2" y="59.3" width="12.9" height="19.9"/>
		</defs>
		<clipPath id="SVGID_00000041271766302895870070000016178577975552274311_">
			<use xlink:href="#SVGID_1_"  style="overflow:visible;"/>
		</clipPath>
		<g style="clip-path:url(#SVGID_00000041271766302895870070000016178577975552274311_);">
			<path class="st2" d="M40.7,79.2h7.9c0.2,0,0.3-0.1,0.3-0.3l-1.7-7.4c2.2-1,3.8-3.2,3.8-5.8c0-3.5-2.8-6.3-6.3-6.3
				c-3.5,0-6.3,2.8-6.3,6.3c0,2.6,1.6,4.8,3.8,5.8l-1.7,7.4C40.4,79,40.6,79.2,40.7,79.2"/>
		</g>
	</g>
	<g>
		<defs>
			<rect id="SVGID_00000170957188618079384060000004168497389342418875_" x="5.4" y="7.2" width="78.7" height="70.3"/>
		</defs>
		<clipPath id="SVGID_00000140723584856148083460000010765136632132346770_">
			<use xlink:href="#SVGID_00000170957188618079384060000004168497389342418875_"  style="overflow:visible;"/>
		</clipPath>
		<g style="clip-path:url(#SVGID_00000140723584856148083460000010765136632132346770_);">
			<path class="st0" d="M44.7,7.2C23,7.2,5.4,24.8,5.4,46.6c0,12.5,5.8,23.6,14.8,30.8V50.3c0-0.8,0.7-1.5,1.5-1.5h2.7v-8.1
				c0-11,9-20,20-20h0.7c11,0,20,9,20,20v8.1h2.7c0.8,0,1.5,0.7,1.5,1.5v27.1c9-7.2,14.8-18.3,14.8-30.8
				C84.1,24.8,66.4,7.2,44.7,7.2"/>
		</g>
	</g>
</g>
</svg>
