<?xml version="1.0" encoding="utf-8"?>
<!-- Generator: Adobe Illustrator 24.2.3, SVG Export Plug-In . SVG Version: 6.00 Build 0)  -->
<svg version="1.1" id="Layer_1" xmlns="http://www.w3.org/2000/svg" xmlns:xlink="http://www.w3.org/1999/xlink" x="0px" y="0px"
	 viewBox="0 0 152 32" style="enable-background:new 0 0 152 32;" xml:space="preserve">
<style type="text/css">
	.st0{fill:#392CB7;}
	.st1{fill:#FFFFFF;}
	.st2{font-family:'Poppins-Regular';}
	.st3{font-size:17px;}
	.st4{font-family:'Poppins-Bold';}
</style>
<g>
	<g>
		<path class="st0" d="M89.6,7.2c1.2,0,2.5,0,3.7,0c4.5,0,8.3,3.2,9,7.7c0.1,0.5,0.1,1,0.1,1.6c0,1.3,0,2.6,0,3.9
			c0,0.2-0.1,0.3-0.3,0.3c-0.6,0-1.2,0-1.8-0.2c-0.9-0.4-1.6-1.4-1.6-2.4c0-0.8,0.1-1.6-0.1-2.4c-0.3-1.8-1.3-3.2-2.9-4.1
			C94.9,11.2,94,11,93.1,11c-1.5,0-3,0-4.5,0c-0.8,0-1.5-0.1-2.2-0.6C85.7,9.7,85.3,9,85.3,8c0-0.2,0-0.4,0-0.5
			c0-0.2,0.1-0.2,0.2-0.2C86.9,7.2,88.2,7.2,89.6,7.2z"/>
		<path class="st0" d="M104.2,26.8c-1.2,0-2.4,0-3.6,0c-2.2,0-4.1-0.7-5.7-2.1c-1.8-1.5-2.8-3.4-3.2-5.7c-0.1-0.5-0.1-0.9-0.1-1.4
			c0-1.3,0-2.6,0-3.9c0-0.2,0-0.3,0.2-0.2c0.4,0,0.9,0,1.3,0.1c1.2,0.2,2.1,1.3,2.1,2.5c0,0.8-0.1,1.6,0.1,2.4
			c0.3,1.6,1.1,2.9,2.5,3.8c0.9,0.6,2,0.9,3.1,0.9c1.5,0,3,0,4.4,0c0.7,0,1.5,0.1,2.1,0.6c0.9,0.5,1.3,1.4,1.3,2.4
			c0,0.2,0.1,0.5,0,0.7s-0.4,0-0.7,0C106.8,26.8,105.5,26.8,104.2,26.8z"/>
	</g>
</g>
<text transform="matrix(1 0 0 1 1.5647 25.4869)" class="st1 st2 st3">Decentral</text>
<text transform="matrix(1 0 0 1 113.0684 25.4372)" class="st1 st4 st3">DEX</text>
</svg>
