<?xml version="1.0" encoding="utf-8"?>
<!-- Generator: Adobe Illustrator 24.2.3, SVG Export Plug-In . SVG Version: 6.00 Build 0)  -->
<svg version="1.1" id="Layer_1" xmlns="http://www.w3.org/2000/svg" xmlns:xlink="http://www.w3.org/1999/xlink" x="0px" y="0px"
	 viewBox="0 0 100 21" style="enable-background:new 0 0 100 21;" xml:space="preserve">
<style type="text/css">
	.st0{fill:#231F20;}
	.st1{font-family:'Brother-1816-Bold';}
	.st2{font-size:7.146px;}
	.st3{font-family:'Brother-1816-Regular';}
	.st4{fill:url(#SVGID_1_);}
</style>
<desc>Created with Sketch.</desc>
<text transform="matrix(1 0 0 1 21.3416 13.2852)"><tspan x="0" y="0" class="st0 st1 st2">Blockchain </tspan><tspan x="38.9" y="0" class="st0 st3 st2">Costa Rica</tspan></text>
<g>
	<linearGradient id="SVGID_1_" gradientUnits="userSpaceOnUse" x1="3.1113" y1="10.5" x2="18.9816" y2="10.5">
		<stop  offset="0" style="stop-color:#2586E0"/>
		<stop  offset="1" style="stop-color:#00DFAE"/>
	</linearGradient>
	<path class="st4" d="M19,8.2V5.9l-2-1.1l-1.6,0.9L13,4.3V2.5l-2-1.1l-2,1.1v1.8L6.7,5.7L5.1,4.8l-2,1.1v2.3l1.6,0.9v2.7l-1.6,0.9
		v2.3l2,1.1l1.6-0.9l2.4,1.4v1.8l2,1.1l2-1.1v-1.8l2.4-1.4l1.6,0.9l2-1.1v-2.3l-1.6-0.9V9.1L19,8.2z M9.9,2.9L11,2.3l1.2,0.7v1.4
		l-0.4,0.2L11,5l-0.8-0.5L9.9,4.3V2.9z M7.1,6.4L9.5,5L11,5.9L12.6,5L15,6.4v1.4l-1.4,0.8L11,7.1L8.5,8.6L7.1,7.8V6.4z M3.9,7.8V6.4
		l1.2-0.7l0.8,0.5l0.4,0.2v1.4L5.9,8L5.5,8.2L5.1,8.4L4.7,8.2L3.9,7.8z M6.3,14.6l-0.4,0.2l-0.8,0.5l-1.2-0.7v-1.4l0.8-0.5l0.4-0.2
		l0.4,0.2L5.9,13l0.4,0.2V14.6z M6.7,12.6l-1.2-0.7V9.1l1.2-0.7l1.4,0.8v2.5L6.7,12.6z M12.2,18.1L11,18.7l-1.2-0.7v-1.4l0.4-0.2
		L11,16l0.8,0.5l0.4,0.2V18.1z M15,14.6L12.6,16L11,15.1L9.5,16l-2.4-1.4v-1.4l1.4-0.8l2.6,1.5l2.6-1.5l1.4,0.8V14.6z M14,11.8V9.2
		l1.4-0.8l1.2,0.7v2.7l-1.2,0.7L14,11.8z M18.2,13.2v1.4L17,15.3l-0.8-0.5l-0.4-0.2v-1.4l0.4-0.2l0.4-0.2l0.4-0.2l0.4,0.2L18.2,13.2
		z M17,8.4l-0.4-0.2L16.2,8l-0.4-0.2V6.4l0.4-0.2L17,5.7l1.2,0.7v1.4l-0.8,0.5L17,8.4z"/>
</g>
</svg>
