<?xml version="1.0" encoding="utf-8"?>
<!-- Generator: Adobe Illustrator 24.0.2, SVG Export Plug-In . SVG Version: 6.00 Build 0)  -->
<svg version="1.1" id="Layer_1" xmlns="http://www.w3.org/2000/svg" xmlns:xlink="http://www.w3.org/1999/xlink" x="0px" y="0px"
	 viewBox="0 0 152 32" style="enable-background:new 0 0 152 32;" xml:space="preserve">
<style type="text/css">
	.st0{fill:#F3931F;}
	.st1{fill:#FFFFFF;}
	.st2{font-family:'Brother-1816-Regular';}
	.st3{font-size:14px;}
	.st4{fill:#F49318;}
	.st5{font-family:'Brother1816-Bold';}
	.st6{font-size:13px;}
</style>
<g>
	<g>
		<path class="st0" d="M70.3,7.8c1.2,0,2.5,0,3.7,0c4.5,0,8.3,3.2,9,7.7c0.1,0.5,0.1,1,0.1,1.6c0,1.3,0,2.6,0,3.9
			c0,0.2-0.1,0.3-0.3,0.3c-0.6,0-1.2,0-1.8-0.2c-0.9-0.4-1.6-1.4-1.6-2.4c0-0.8,0.1-1.6-0.1-2.4c-0.3-1.8-1.3-3.2-2.9-4.1
			c-0.8-0.4-1.7-0.6-2.6-0.6c-1.5,0-3,0-4.5,0c-0.8,0-1.5-0.1-2.2-0.6C66.4,10.3,66,9.6,66,8.6c0-0.2,0-0.4,0-0.5
			c0-0.2,0.1-0.2,0.2-0.2C67.6,7.8,68.9,7.8,70.3,7.8z"/>
		<path class="st0" d="M84.9,27.4c-1.2,0-2.4,0-3.6,0c-2.2,0-4.1-0.7-5.7-2.1c-1.8-1.5-2.8-3.4-3.2-5.7c-0.1-0.5-0.1-0.9-0.1-1.4
			c0-1.3,0-2.6,0-3.9c0-0.2,0-0.3,0.2-0.2c0.4,0,0.9,0,1.3,0.1c1.2,0.2,2.1,1.3,2.1,2.5c0,0.8-0.1,1.6,0.1,2.4
			c0.3,1.6,1.1,2.9,2.5,3.8c0.9,0.6,2,0.9,3.1,0.9c1.5,0,3,0,4.4,0c0.7,0,1.5,0.1,2.1,0.6c0.9,0.5,1.3,1.4,1.3,2.4
			c0,0.2,0.1,0.5,0,0.7s-0.4,0-0.7,0C87.5,27.4,86.2,27.4,84.9,27.4z"/>
	</g>
</g>
<text transform="matrix(1 0 0 1 2.914 23.2285)" class="st1 st2 st3">Decentral</text>
<text transform="matrix(1 0 0 1 89.4035 23.2286)" class="st4 st5 st6">Exchange</text>
</svg>
