<?xml version="1.0" encoding="utf-8"?>
<!-- Generator: Adobe Illustrator 24.2.3, SVG Export Plug-In . SVG Version: 6.00 Build 0)  -->
<svg version="1.1" id="Layer_1" xmlns="http://www.w3.org/2000/svg" xmlns:xlink="http://www.w3.org/1999/xlink" x="0px" y="0px"
	 viewBox="0 0 30 30" style="enable-background:new 0 0 30 30;" xml:space="preserve">
<style type="text/css">
	.st0{fill-rule:evenodd;clip-rule:evenodd;fill:#FFFFFF;}
	.st1{fill-rule:evenodd;clip-rule:evenodd;fill:#D8D8D8;fill-opacity:0;}
	.st2{fill:#0582B8;}
	.st3{fill:#F9F9F9;}
</style>
<g>
	<path class="st0" d="M0,0h30v30H0V0z"/>
	<circle class="st1" cx="15" cy="15" r="15"/>
</g>
<g>
	<g>
		<path class="st2" d="M28.9,15c0.1,7.5-6.2,13.8-13.9,13.8c-7.6,0-14-6.3-13.8-14.2C1.3,7.4,7.3,1,15.4,1.1
			C22.9,1.3,28.9,7.5,28.9,15z"/>
		<path class="st3" d="M16.2,11.1c0,1.1,0,2.2,0,3.3c0,0.5,0.2,0.8,0.6,1.1c1.9,1.1,3.8,2.2,5.7,3.3c0.5,0.3,0.5,0.4,0.2,0.9
			c-0.2,0.3-0.4,0.6-0.5,0.9c-0.2,0.4-0.5,0.5-0.9,0.2c-1.9-1.1-3.8-2.2-5.6-3.3c-0.5-0.3-1-0.3-1.5,0c-1.8,1.1-3.7,2.2-5.6,3.2
			C8.1,21,8.1,21,7.8,20.5c-0.2-0.3-0.3-0.6-0.5-0.9C7,19.1,7,19,7.5,18.7c1.9-1.1,3.7-2.2,5.6-3.2c0.5-0.3,0.7-0.7,0.7-1.3
			c0-2.2,0-4.3,0-6.5c0-0.7,0-0.7,0.7-0.7c0.3,0,0.6,0,0.9,0c0.6,0,0.7,0.1,0.7,0.7C16.2,8.9,16.2,10,16.2,11.1z"/>
		<path class="st3" d="M9.6,13.6c-0.8,0-1.5-0.7-1.5-1.5c0-0.8,0.7-1.5,1.5-1.5c0.8,0,1.5,0.7,1.5,1.5C11.1,12.9,10.4,13.6,9.6,13.6
			z"/>
		<path class="st3" d="M20.4,13.6c-0.8,0-1.5-0.7-1.5-1.5c0-0.8,0.7-1.5,1.5-1.5c0.8,0,1.5,0.6,1.5,1.5
			C21.9,12.9,21.2,13.6,20.4,13.6z"/>
		<path class="st3" d="M16.5,21.9c0,0.8-0.7,1.5-1.5,1.5c-0.8,0-1.5-0.6-1.5-1.5c0-0.8,0.6-1.5,1.4-1.5
			C15.8,20.4,16.5,21.1,16.5,21.9z"/>
	</g>
</g>
</svg>
